<?xml version="1.0" encoding="UTF-8"?>
<svg xmlns="http://www.w3.org/2000/svg" width="200" height="48" viewBox="0 0 200 48" fill="none">
  <path d="M88.1608 25.916C88.1608 27.5076 87.8563 28.9337 87.2475 30.1942C86.6493 31.4547 85.7039 32.4641 84.4114 33.2225C83.1295 33.981 81.4471 34.4189 79.3641 34.5364L79.4122 39.2633C79.4122 39.5196 79.284 39.6478 79.0276 39.6478H75.7429C75.4865 39.6478 75.3583 39.5196 75.3583 39.2633L75.4064 34.5364C73.3447 34.4296 71.6676 34.0023 70.3751 33.2546C69.0826 32.4962 68.1319 31.4974 67.523 30.2583C66.9141 29.0085 66.6097 27.5877 66.6097 25.9961C66.6097 24.3938 66.9141 22.9677 67.523 21.7179C68.1426 20.4574 69.0986 19.4426 70.3911 18.6735C71.6944 17.9044 73.3714 17.4611 75.4224 17.3436L75.3583 12.1521C75.3583 11.8958 75.4865 11.7676 75.7429 11.7676H79.0276C79.284 11.7676 79.4122 11.8958 79.4122 12.1521L79.3481 17.3596C81.5165 17.4558 83.2417 17.8831 84.5235 18.6415C85.8161 19.3892 86.7454 20.388 87.3116 21.6378C87.8777 22.8769 88.1608 24.303 88.1608 25.916ZM70.5994 26.0121C70.5994 27.7426 70.9466 29.1206 71.6409 30.1461C72.346 31.1609 73.6171 31.7484 75.4544 31.9086L75.5185 25.2751L75.4705 20.0035C73.74 20.1744 72.4955 20.7832 71.7371 21.8301C70.9787 22.8769 70.5994 24.271 70.5994 26.0121ZM79.2519 25.195L79.332 31.8926C81.1266 31.7217 82.3818 31.1182 83.0975 30.082C83.8239 29.0352 84.1871 27.6732 84.1871 25.9961C84.1871 24.2442 83.8025 22.8502 83.0334 21.8141C82.275 20.7779 81.0358 20.1744 79.316 20.0035L79.2519 25.195ZM98.5826 34.6005C96.8414 34.6005 95.3566 34.248 94.1282 33.543C92.9104 32.8273 91.9757 31.8285 91.3241 30.5467C90.6832 29.2541 90.3627 27.7373 90.3627 25.9961C90.3627 24.2442 90.6832 22.7167 91.3241 21.4135C91.9757 20.1103 92.9104 19.1008 94.1282 18.3851C95.3566 17.6587 96.8414 17.2955 98.5826 17.2955C100.313 17.2955 101.787 17.6534 103.005 18.3691C104.223 19.0741 105.147 20.0729 105.777 21.3654C106.407 22.658 106.722 24.1748 106.722 25.916C106.722 27.6572 106.407 29.1794 105.777 30.4826C105.147 31.7858 104.223 32.8006 103.005 33.527C101.787 34.2427 100.313 34.6005 98.5826 34.6005ZM98.5826 31.9086C99.9499 31.9086 100.965 31.4173 101.627 30.4345C102.3 29.4518 102.636 27.9723 102.636 25.9961C102.636 24.0306 102.295 22.5405 101.611 21.5257C100.938 20.5002 99.9178 19.9874 98.5505 19.9874C97.1619 19.9981 96.1257 20.5162 95.442 21.5417C94.7691 22.5672 94.4326 24.0573 94.4326 26.0121C94.4326 27.9776 94.7798 29.4518 95.4741 30.4345C96.1684 31.4173 97.2046 31.9086 98.5826 31.9086ZM118.282 17.3757C119.81 17.3757 121.091 17.7549 122.128 18.5133C123.174 19.2611 123.96 20.2812 124.483 21.5737C125.017 22.8556 125.284 24.2977 125.284 25.9C125.284 27.4916 125.001 28.939 124.435 30.2422C123.879 31.5455 123.073 32.587 122.015 33.3667C120.958 34.1359 119.687 34.5204 118.202 34.5204C116.055 34.5204 114.431 33.7139 113.331 32.1009L113.411 39.2633C113.411 39.5196 113.283 39.6478 113.026 39.6478H109.662C109.405 39.6478 109.277 39.5196 109.277 39.2633L109.437 27.2619L109.277 18.0807C109.277 17.8243 109.405 17.6961 109.662 17.6961H112.93C113.208 17.6961 113.336 17.8297 113.315 18.0967L113.235 20.0035C113.801 19.1809 114.506 18.54 115.35 18.0807C116.204 17.6107 117.182 17.3757 118.282 17.3757ZM117.128 31.8125C118.047 31.8125 118.811 31.5828 119.42 31.1235C120.029 30.6642 120.483 30.0126 120.782 29.1687C121.091 28.3248 121.246 27.3153 121.246 26.1403C121.246 24.8798 121.097 23.8009 120.798 22.9036C120.499 21.9957 120.05 21.3013 119.452 20.8206C118.854 20.3399 118.106 20.0996 117.208 20.0996C115.937 20.0996 114.949 20.5803 114.244 21.5417C113.539 22.5031 113.176 23.9291 113.155 25.8199C113.144 27.7213 113.48 29.1954 114.164 30.2422C114.848 31.2891 115.836 31.8125 117.128 31.8125ZM128.268 34.2C128.022 34.2 127.899 34.0718 127.899 33.8154L128.043 26.0121L127.899 18.0807C127.899 17.8243 128.022 17.6961 128.268 17.6961H132.402C132.615 17.6961 132.76 17.7976 132.834 18.0006L137.144 29.7776L141.503 18.0006C141.578 17.7976 141.727 17.6961 141.951 17.6961H146.117C146.363 17.6961 146.486 17.8243 146.486 18.0807L146.342 26.0121L146.486 33.8154C146.486 34.0718 146.363 34.2 146.117 34.2H143.041C142.785 34.2 142.656 34.0718 142.656 33.8154V26.5569L142.737 22.0063L138.394 33.8955C138.32 34.0985 138.17 34.2 137.946 34.2H135.831C135.606 34.2 135.457 34.0985 135.382 33.8955L130.928 21.8141L131.056 26.5569L131.088 33.8154C131.088 34.0718 130.96 34.2 130.703 34.2H128.268ZM154.713 34.3121L148.207 18.1448C148.09 17.8457 148.191 17.6961 148.512 17.6961H152.181C152.405 17.6961 152.549 17.7976 152.614 18.0006L156.667 29.2168L160.064 18.0166C160.128 17.8029 160.273 17.6961 160.497 17.6961H163.75C164.059 17.6961 164.161 17.8457 164.054 18.1448L156.748 39.3274C156.673 39.541 156.529 39.6478 156.315 39.6478H153.319C153.009 39.6478 152.902 39.4983 152.998 39.1992L154.713 34.3121ZM164.594 34.5044C164.305 34.5044 164.043 34.483 163.808 34.4403C163.573 34.3976 163.371 34.3548 163.2 34.3121C162.986 34.2587 162.879 34.1145 162.879 33.8795V31.9567C162.879 31.6897 163.023 31.5775 163.312 31.6202C163.387 31.6309 163.461 31.6416 163.536 31.6523C163.622 31.663 163.696 31.6683 163.76 31.6683C164.412 31.6683 164.882 31.4386 165.17 30.9793C165.459 30.52 165.667 29.644 165.795 28.3515C165.849 27.7854 165.897 27.0964 165.94 26.2845C165.993 25.462 166.041 24.5807 166.084 23.6407C166.127 22.7007 166.164 21.7553 166.196 20.8046C166.239 19.8432 166.271 18.9352 166.292 18.0807C166.313 17.8243 166.452 17.6961 166.709 17.6961H178.261C178.518 17.6961 178.646 17.8243 178.646 18.0807L178.55 26.0762L178.71 33.8154C178.71 34.0718 178.587 34.2 178.341 34.2L175.073 34.232C174.816 34.232 174.688 34.0985 174.688 33.8314L174.784 26.0762L174.672 20.5322H169.625C169.593 21.1304 169.561 21.8034 169.529 22.5511C169.497 23.2882 169.459 24.0413 169.417 24.8104C169.374 25.5795 169.331 26.3112 169.288 27.0056C169.246 27.6999 169.198 28.3034 169.144 28.8162C169.037 29.9912 168.84 31.0007 168.551 31.8446C168.263 32.6884 167.809 33.3454 167.189 33.8154C166.57 34.2747 165.705 34.5044 164.594 34.5044ZM193.292 18.0967C193.281 17.8297 193.409 17.6961 193.676 17.6961H196.945C197.191 17.6961 197.314 17.8243 197.314 18.0807L197.169 25.8839L197.314 33.8154C197.314 34.0718 197.191 34.2 196.945 34.2H193.692C193.425 34.2 193.297 34.0718 193.308 33.8154L193.372 31.8606C192.816 32.6938 192.117 33.3454 191.273 33.8154C190.429 34.2854 189.446 34.5204 188.325 34.5204C186.797 34.5204 185.51 34.1465 184.463 33.3988C183.427 32.6404 182.642 31.6149 182.108 30.3224C181.574 29.0298 181.307 27.5877 181.307 25.9961C181.307 24.4045 181.59 22.9571 182.156 21.6538C182.722 20.3506 183.534 19.3145 184.591 18.5454C185.649 17.7656 186.915 17.3757 188.389 17.3757C190.579 17.3757 192.234 18.2035 193.356 19.8592L193.292 18.0967ZM189.398 31.8285C190.68 31.8285 191.673 31.3478 192.378 30.3864C193.084 29.4144 193.441 27.9776 193.452 26.0762C193.473 24.1534 193.137 22.674 192.443 21.6378C191.759 20.591 190.771 20.0675 189.478 20.0675C188.56 20.0462 187.796 20.2652 187.187 20.7245C186.578 21.1838 186.119 21.8408 185.809 22.6953C185.51 23.5499 185.36 24.57 185.36 25.7558C185.36 27.0269 185.51 28.1165 185.809 29.0245C186.119 29.9325 186.573 30.6321 187.171 31.1235C187.769 31.6042 188.512 31.8392 189.398 31.8285Z" fill="#12132C"></path>
  <g clip-path="url(#clip0_169_850)">
    <path d="M47.2001 7.1395C47.2001 16.9367 9.44012 16.5447 9.44012 26.3419C9.44012 34.5714 47.2001 34.1795 47.2001 42.801C47.2001 48.8506 23.9609 48.3399 10.0955 47.4968C4.35056 47.1475 0.00012207 42.3359 0.00012207 36.5803V10.9582C0.00012207 5.06076 4.5651 0.182868 10.4612 0.0590823C24.3654 -0.232827 47.2001 0.325104 47.2001 7.1395Z" fill="#12132C"></path>
    <path d="M4.0002 40.8605C4.0002 31.0633 41.7602 31.4553 41.7602 21.6581C41.7602 13.4286 4.0002 13.8205 4.0002 5.19897C4.0002 -0.850579 27.2394 -0.339892 41.1048 0.503177C46.8498 0.852493 51.2002 5.66411 51.2002 11.4197L51.2002 37.0418C51.2002 42.9392 46.6352 47.8171 40.7391 47.9409C26.8349 48.2328 4.00019 47.6749 4.0002 40.8605Z" fill="#12132C"></path>
  </g>
  <defs>
    <clipPath id="clip0_169_850">
      <rect width="51.2" height="48" fill="white"></rect>
    </clipPath>
  </defs>
</svg>
